<?xml version="1.0" encoding="UTF-8" standalone="no"?>
<!-- Created with Inkscape (http://www.inkscape.org/) -->

<svg
   width="44.531261mm"
   height="40.122776mm"
   viewBox="0 0 44.531261 40.122776"
   version="1.1"
   id="svg1"
   inkscape:version="1.4.2 (ebf0e940d0, 2025-05-08)"
   sodipodi:docname="alice.svg"
   xmlns:inkscape="http://www.inkscape.org/namespaces/inkscape"
   xmlns:sodipodi="http://sodipodi.sourceforge.net/DTD/sodipodi-0.dtd"
   xmlns="http://www.w3.org/2000/svg"
   xmlns:svg="http://www.w3.org/2000/svg">
  <sodipodi:namedview
     id="namedview1"
     pagecolor="#ffffff"
     bordercolor="#000000"
     borderopacity="0.25"
     inkscape:showpageshadow="2"
     inkscape:pageopacity="0.0"
     inkscape:pagecheckerboard="0"
     inkscape:deskcolor="#d1d1d1"
     inkscape:document-units="mm"
     inkscape:zoom="2.1625031"
     inkscape:cx="-6.7051926"
     inkscape:cy="49.01727"
     inkscape:window-width="2560"
     inkscape:window-height="1384"
     inkscape:window-x="0"
     inkscape:window-y="0"
     inkscape:window-maximized="0"
     inkscape:current-layer="layer1" />
  <defs
     id="defs1" />
  <g
     inkscape:label="Layer 1"
     inkscape:groupmode="layer"
     id="layer1"
     transform="translate(-72.772969,-109.84502)">
    <path
       style="font-size:8.46667px;font-family:'Hanken Grotesk';-inkscape-font-specification:'Hanken Grotesk';text-align:center;text-anchor:middle;display:inline;fill:#ed8796;stroke-width:0.265"
       d="m 86.106236,149.90005 2.252136,-5.90127 h 0.592669 l 2.252135,5.90128 h -0.812807 l -1.727199,-4.83448 -1.735663,4.83448 z m 1.253069,-1.38853 0.228603,-0.66887 2.133602,-1.8e-4 0.245529,0.66886 z m 5.359391,1.45628 q -0.381,-1e-5 -0.618071,-0.23708 -0.237054,-0.23706 -0.237061,-0.75353 l 3.9e-5,-4.9784 0.711198,-1e-5 -1.4e-5,4.84295 q -2e-6,0.24553 0.101599,0.3556 0.101596,0.11005 0.270927,0.11006 0.07622,3e-5 0.169317,-0.017 0.09313,-0.0169 0.194739,-0.0508 l -4e-6,0.6096 q -0.143957,0.0593 -0.304799,0.0847 -0.160892,0.0338 -0.287868,0.0339 z m 1.397001,-0.0678 -1.5e-5,-4.17406 h 0.711199 l 1.5e-5,4.17407 z m -0.06769,-4.92759 10e-7,-0.97367 h 0.846668 v 0.97366 z m 3.725336,4.99532 q -0.465669,0 -0.829737,-0.16933 -0.355604,-0.16933 -0.601133,-0.46567 -0.245538,-0.3048 -0.372536,-0.69426 -0.126999,-0.38947 -0.126999,-0.82974 0,-0.4318 0.127001,-0.82126 0.126996,-0.38948 0.372538,-0.6858 0.245517,-0.30482 0.601136,-0.47413 0.364077,-0.16932 0.82974,-0.16933 0.592662,0 1.032934,0.28787 0.448729,0.28787 0.660398,0.88053 l -0.635003,0.24553 q -0.118532,-0.3556 -0.381001,-0.57573 -0.26247,-0.22013 -0.677327,-0.22013 -0.414874,-1e-5 -0.685811,0.22013 -0.270948,0.22011 -0.406404,0.56727 -0.126997,0.34713 -0.126998,0.74506 -10e-7,0.39794 0.127002,0.75354 0.135462,0.34713 0.406377,0.56728 0.270941,0.21166 0.68581,0.21167 0.414861,0 0.677329,-0.21167 0.262496,-0.2201 0.380999,-0.58421 l 0.635004,0.24554 q -0.211673,0.59267 -0.660402,0.88901 -0.440283,0.28784 -1.032933,0.28785 z m 4.411127,-4.4e-4 q -0.49107,0 -0.8636,-0.16087 -0.36407,-0.16933 -0.6096,-0.46567 -0.23707,-0.29633 -0.36407,-0.67733 -0.11853,-0.38947 -0.11853,-0.82127 0,-0.4318 0.11853,-0.82127 0.11853,-0.39793 0.34713,-0.70273 0.23708,-0.30479 0.5927,-0.48256 0.35557,-0.17785 0.82973,-0.17781 0.4826,0 0.82974,0.16934 0.3556,0.16086 0.57573,0.44873 0.2286,0.28787 0.33867,0.64346 0.11006,0.3556 0.11007,0.73661 1e-5,0.0339 -0.008,0.16087 2e-5,0.11855 -0.0169,0.21167 l -3.00567,-3.4e-4 q 0.0254,0.6096 0.3556,0.94827 0.3302,0.33866 0.89746,0.33867 0.36406,0 0.635,-0.11853 0.27093,-0.11854 0.50788,-0.38117 l 0.49953,0.44027 q -0.22858,0.24555 -0.4826,0.40639 -0.25401,0.1524 -0.54187,0.2286 -0.2794,0.0763 -0.62653,0.0762 z m 1.07526,-2.30293 q 0.0169,-0.0677 0.0169,-0.13547 0.008,-0.0677 0.008,-0.13548 10e-6,-0.20319 -0.0762,-0.40639 -0.0677,-0.2032 -0.21167,-0.36407 -0.1355,-0.1693 -0.3556,-0.26246 -0.21166,-0.1016 -0.50799,-0.1016 -0.36407,0 -0.62655,0.16933 -0.26248,0.16931 -0.40639,0.44874 -0.14394,0.2794 -0.16934,0.61806 l 2.56541,-4.2e-4 z"
       id="text7-4"
       inkscape:label="Alice"
       aria-label="Alice" />
    <g
       id="g28"
       style="display:inline;stroke:#ed8796;stroke-opacity:1"
       inkscape:label="Alice"
       transform="rotate(-36.34719,153.83807,550.56033)">
      <rect
         style="fill:none;fill-opacity:1;stroke:#ed8796;stroke-width:1.5875;stroke-linecap:square;stroke-linejoin:round;stroke-dasharray:none;stroke-opacity:1"
         id="rect7-6"
         width="29.247419"
         height="21.471897"
         x="376.78848"
         y="-78.770813"
         ry="7.1335163"
         transform="rotate(36.347235)" />
      <rect
         style="fill:none;fill-opacity:1;stroke:#ed8796;stroke-width:1.5875;stroke-linecap:square;stroke-linejoin:round;stroke-dasharray:none;stroke-opacity:1"
         id="rect8-4"
         width="6.8481755"
         height="12.554988"
         x="406.03589"
         y="-74.312363"
         ry="3.4240878"
         transform="rotate(36.347235)" />
      <rect
         style="fill:none;fill-opacity:1;stroke:#ed8796;stroke-width:1.5875;stroke-linecap:square;stroke-linejoin:round;stroke-dasharray:none;stroke-opacity:1"
         id="rect9-3"
         width="6.8481755"
         height="12.554988"
         x="369.94031"
         y="-74.312363"
         ry="3.4240878"
         transform="rotate(36.347235)" />
      <circle
         style="fill:none;fill-opacity:1;stroke:#ed8796;stroke-width:1.5875;stroke-linecap:square;stroke-linejoin:round;stroke-dasharray:none;stroke-opacity:1"
         id="path9-3"
         cx="385.7767"
         cy="-70.95961"
         r="3.1030793"
         transform="rotate(36.347235)" />
      <circle
         style="fill:none;fill-opacity:1;stroke:#ed8796;stroke-width:1.5875;stroke-linecap:square;stroke-linejoin:round;stroke-dasharray:none;stroke-opacity:1"
         id="circle9-3"
         cx="397.04767"
         cy="-70.95961"
         r="3.1030793"
         transform="rotate(36.347235)" />
      <path
         style="fill:none;fill-opacity:1;stroke:#ed8796;stroke-width:1.5875;stroke-linecap:round;stroke-linejoin:round;stroke-dasharray:none;stroke-opacity:1"
         id="path10-8"
         sodipodi:type="arc"
         sodipodi:cx="384.62653"
         sodipodi:cy="-98.197914"
         sodipodi:rx="3.9591014"
         sodipodi:ry="3.9591014"
         sodipodi:start="0"
         sodipodi:end="2.691833"
         sodipodi:open="true"
         sodipodi:arc-type="arc"
         d="m 388.58563,-98.197914 a 3.9591014,3.9591014 0 0 1 -3.07627,3.859415 3.9591014,3.9591014 0 0 1 -4.44821,-2.138199"
         transform="rotate(41.385811)" />
      <path
         style="fill:none;fill-opacity:1;stroke:#ed8796;stroke-width:1.5875;stroke-linecap:round;stroke-linejoin:round;stroke-dasharray:none;stroke-opacity:1"
         d="m 361.94469,168.53598 2.51481,-3.4176"
         id="path11-6"
         sodipodi:nodetypes="cc" />
      <circle
         style="fill:none;fill-opacity:1;stroke:#ed8796;stroke-width:1.5875;stroke-linecap:round;stroke-linejoin:round;stroke-dasharray:none;stroke-opacity:1"
         id="path13-0"
         cx="391.41217"
         cy="-85.334259"
         r="2.3203125"
         transform="rotate(36.347235)" />
    </g>
  </g>
</svg>
