<?xml version="1.0" encoding="UTF-8" standalone="no"?>
<!-- Created with Inkscape (http://www.inkscape.org/) -->

<svg
   width="44.531315mm"
   height="40.255821mm"
   viewBox="0 0 44.531315 40.255821"
   version="1.1"
   id="svg1"
   inkscape:version="1.4.2 (ebf0e940d0, 2025-05-08)"
   sodipodi:docname="bob.svg"
   xmlns:inkscape="http://www.inkscape.org/namespaces/inkscape"
   xmlns:sodipodi="http://sodipodi.sourceforge.net/DTD/sodipodi-0.dtd"
   xmlns="http://www.w3.org/2000/svg"
   xmlns:svg="http://www.w3.org/2000/svg">
  <sodipodi:namedview
     id="namedview1"
     pagecolor="#ffffff"
     bordercolor="#000000"
     borderopacity="0.25"
     inkscape:showpageshadow="2"
     inkscape:pageopacity="0.0"
     inkscape:pagecheckerboard="0"
     inkscape:deskcolor="#d1d1d1"
     inkscape:document-units="mm"
     inkscape:zoom="1.032412"
     inkscape:cx="-97.34486"
     inkscape:cy="196.62693"
     inkscape:window-width="2560"
     inkscape:window-height="1384"
     inkscape:window-x="0"
     inkscape:window-y="0"
     inkscape:window-maximized="0"
     inkscape:current-layer="g14" />
  <defs
     id="defs1" />
  <g
     inkscape:label="Layer 1"
     inkscape:groupmode="layer"
     id="layer1"
     transform="translate(-63.06,-48.308301)">
    <g
       id="g14"
       transform="rotate(12.184942,368.76741,-619.52996)"
       inkscape:label="Bob"
       style="display:inline;stroke:#a6da95;stroke-opacity:1">
      <g
         id="g1"
         transform="translate(52.686599,-85.050322)">
        <path
           style="font-size:8.46667px;font-family:'Hanken Grotesk';-inkscape-font-specification:'Hanken Grotesk';text-align:center;text-anchor:middle;display:inline;fill:#a6da95;stroke-width:0.265"
           d="m 181.66443,218.75399 -1.2456,-5.76833 1.84554,-0.3985 q 0.81937,-0.17662 1.36497,0.10375 0.55393,0.27883 0.70047,0.95744 0.0929,0.43036 -0.0277,0.79422 -0.12046,0.36393 -0.43251,0.60443 0.5352,0.0321 0.8722,0.34871 0.34524,0.31523 0.46854,0.88627 0.16795,0.77795 -0.22736,1.31371 -0.38886,0.52573 -1.27439,0.71693 z m 0.58353,-0.82763 1.26616,-0.27366 q 1.1835,-0.25534 0.969,-1.24867 -0.10187,-0.47173 -0.43037,-0.6693 -0.32201,-0.20764 -0.8103,-0.10225 l -1.42341,0.30754 z m -0.57009,-2.64001 1.2331,-0.26634 q 0.4137,-0.0897 0.61026,-0.38293 0.20291,-0.3037 0.1118,-0.72575 -0.0893,-0.41379 -0.41249,-0.58654 -0.32315,-0.17277 -0.81142,-0.0674 l -1.11716,0.24164 z m 6.71263,2.08453 q -0.57099,0.12357 -1.08342,-0.0432 -0.50587,-0.1766 -0.86607,-0.6012 -0.36021,-0.42461 -0.49245,-1.03703 -0.13225,-0.61241 0.0142,-1.13775 0.15294,-0.53539 0.54261,-0.89674 0.3962,-0.3714 0.97553,-0.49646 0.57923,-0.12541 1.0769,0.0536 0.50407,0.16836 0.86429,0.59292 0.3584,0.41632 0.49066,1.02875 0.13225,0.61241 -0.0207,1.14781 -0.15474,0.52712 -0.54261,0.89675 -0.38794,0.3696 -0.95897,0.49292 z m -0.134,-0.62071 q 0.38892,-0.0842 0.63104,-0.32681 0.24855,-0.25289 0.33432,-0.61788 0.084,-0.37326 -0.0125,-0.82018 -0.0983,-0.45517 -0.32701,-0.75224 -0.23052,-0.30536 -0.55949,-0.4249 -0.32071,-0.12129 -0.70966,-0.0373 -0.3972,0.0861 -0.64582,0.33866 -0.25034,0.24461 -0.3361,0.6096 -0.0857,0.36501 0.0125,0.82016 0.0965,0.44692 0.32702,0.75226 0.22873,0.2971 0.55948,0.42489 0.32899,0.1195 0.7262,0.0341 z m 5.11613,-0.45512 q -0.38891,0.0842 -0.73562,0.003 -0.34016,-0.0911 -0.61431,-0.31776 -0.26586,-0.22844 -0.4503,-0.56107 l 0.21562,-0.12455 0.26268,1.21656 -0.69518,0.1501 -1.24559,-5.76832 0.69517,-0.1501 0.62727,2.90485 -0.22364,-0.0729 q 0.0213,-0.3424 0.171,-0.65194 0.1497,-0.30951 0.42197,-0.53286 0.27226,-0.22334 0.66128,-0.30724 0.51311,-0.11074 0.99055,0.055 0.47747,0.16541 0.82761,0.58352 0.35014,0.41812 0.48951,1.06364 0.12869,0.59588 6e-4,1.12592 -0.12803,0.53006 -0.48939,0.90257 -0.35482,0.36245 -0.90932,0.48217 z m -0.25529,-0.6205 q 0.37239,-0.0806 0.61447,-0.32325 0.24857,-0.2529 0.33432,-0.61789 0.094,-0.36678 0.001,-0.79713 -0.0929,-0.43036 -0.32992,-0.72565 -0.22872,-0.29708 -0.5577,-0.41659 -0.32247,-0.1296 -0.6949,-0.0492 -0.37237,0.0806 -0.61268,0.33155 -0.24207,0.24283 -0.32782,0.60781 -0.0857,0.36502 0.007,0.79533 0.0929,0.43037 0.32163,0.72746 0.22871,0.29709 0.55121,0.42667 0.3207,0.12129 0.69314,0.0404 z"
           id="text18"
           inkscape:label="bob"
           aria-label="Bob"
           inkscape:transform-center-x="-27.05754"
           inkscape:transform-center-y="-9.3079875" />
        <rect
           style="fill:none;fill-opacity:1;stroke:#a6da95;stroke-width:1.5875;stroke-linecap:square;stroke-linejoin:round;stroke-dasharray:none;stroke-opacity:1"
           id="rect7"
           width="29.247419"
           height="21.471897"
           x="123.7049"
           y="221.79237"
           ry="7.1335163"
           inkscape:transform-center-x="-11.949049"
           inkscape:transform-center-y="-1.0029735"
           transform="rotate(-12.18521)" />
        <rect
           style="fill:none;fill-opacity:1;stroke:#a6da95;stroke-width:1.5875;stroke-linecap:square;stroke-linejoin:round;stroke-dasharray:none;stroke-opacity:1"
           id="rect8"
           width="6.8481755"
           height="12.554988"
           x="152.95233"
           y="226.25085"
           ry="3.4240878"
           inkscape:transform-center-x="-2.5870034"
           inkscape:transform-center-y="-16.432677"
           transform="rotate(-12.18521)" />
        <rect
           style="fill:none;fill-opacity:1;stroke:#a6da95;stroke-width:1.5875;stroke-linecap:square;stroke-linejoin:round;stroke-dasharray:none;stroke-opacity:1"
           id="rect9"
           width="6.8481755"
           height="12.554988"
           x="116.85672"
           y="226.25085"
           ry="3.4240878"
           inkscape:transform-center-x="-21.311104"
           inkscape:transform-center-y="14.426702"
           transform="rotate(-12.18521)" />
        <circle
           style="fill:none;fill-opacity:1;stroke:#a6da95;stroke-width:1.5875;stroke-linecap:square;stroke-linejoin:round;stroke-dasharray:none;stroke-opacity:1"
           id="path9"
           cx="132.69315"
           cy="229.60361"
           r="3.1030793"
           inkscape:transform-center-x="-12.371914"
           inkscape:transform-center-y="5.3321369"
           transform="rotate(-12.18521)" />
        <circle
           style="fill:none;fill-opacity:1;stroke:#a6da95;stroke-width:1.5875;stroke-linecap:square;stroke-linejoin:round;stroke-dasharray:none;stroke-opacity:1"
           id="circle9"
           cx="143.96408"
           cy="229.60361"
           r="3.1030793"
           inkscape:transform-center-x="-6.5252713"
           inkscape:transform-center-y="-4.3037725"
           transform="rotate(-12.18521)" />
        <path
           style="fill:none;fill-opacity:1;stroke:#a6da95;stroke-width:1.5875;stroke-linecap:round;stroke-linejoin:round;stroke-dasharray:none;stroke-opacity:1"
           id="path10"
           sodipodi:type="arc"
           sodipodi:cx="158.91829"
           sodipodi:cy="223.43132"
           sodipodi:rx="3.9591014"
           sodipodi:ry="3.9591014"
           sodipodi:start="0"
           sodipodi:end="2.691833"
           sodipodi:open="true"
           sodipodi:arc-type="arc"
           d="m 162.87739,223.43132 a 3.9591014,3.9591014 0 0 1 -3.07626,3.85942 3.9591014,3.9591014 0 0 1 -4.44822,-2.1382"
           transform="rotate(-7.14664)"
           inkscape:transform-center-x="-16.288539"
           inkscape:transform-center-y="-4.137835" />
        <path
           style="fill:none;fill-opacity:1;stroke:#a6da95;stroke-width:1.5875;stroke-linecap:round;stroke-linejoin:round;stroke-dasharray:none;stroke-opacity:1"
           d="m 182.02639,187.59813 -0.89562,-4.14755"
           id="path11"
           sodipodi:nodetypes="cc"
           inkscape:transform-center-x="-0.95671897"
           inkscape:transform-center-y="5.6666763" />
        <circle
           style="fill:none;fill-opacity:1;stroke:#a6da95;stroke-width:1.5875;stroke-linecap:round;stroke-linejoin:round;stroke-dasharray:none;stroke-opacity:1"
           id="path13"
           cx="138.32861"
           cy="215.22893"
           r="2.3203125"
           inkscape:transform-center-x="2.8408025"
           inkscape:transform-center-y="7.9708418"
           transform="rotate(-12.18521)" />
      </g>
    </g>
  </g>
</svg>
