<?xml version="1.0" encoding="UTF-8" standalone="yes"?>
<!-- Created with qrencode 4.1.1 (https://fukuchi.org/works/qrencode/index.html) -->
<svg width="3.92cm" height="3.92cm" viewBox="0 0 37 37" preserveAspectRatio="none" version="1.1" xmlns="http://www.w3.org/2000/svg">
	<g id="QRcode">
		<rect x="0" y="0" width="37" height="37" fill="#000000" fill-opacity="0.000000"/>
		<path style="stroke:#ffffff" transform="translate(0,0.5)" d="M0,0h1M1,0h1M2,0h1M3,0h1M4,0h1M5,0h1M6,0h1M8,0h1M9,0h1M10,0h1M11,0h1M13,0h1M15,0h1M16,0h1M19,0h1M21,0h1M23,0h1M25,0h1M26,0h1M28,0h1M30,0h1M31,0h1M32,0h1M33,0h1M34,0h1M35,0h1M36,0h1M0,1h1M6,1h1M8,1h1M9,1h1M13,1h1M15,1h1M16,1h1M17,1h1M18,1h1M19,1h1M20,1h1M22,1h1M23,1h1M26,1h1M27,1h1M28,1h1M30,1h1M36,1h1M0,2h1M2,2h1M3,2h1M4,2h1M6,2h1M8,2h1M10,2h1M11,2h1M12,2h1M13,2h1M16,2h1M17,2h1M20,2h1M23,2h1M28,2h1M30,2h1M32,2h1M33,2h1M34,2h1M36,2h1M0,3h1M2,3h1M3,3h1M4,3h1M6,3h1M9,3h1M12,3h1M14,3h1M15,3h1M17,3h1M18,3h1M19,3h1M23,3h1M24,3h1M25,3h1M26,3h1M27,3h1M30,3h1M32,3h1M33,3h1M34,3h1M36,3h1M0,4h1M2,4h1M3,4h1M4,4h1M6,4h1M10,4h1M11,4h1M13,4h1M14,4h1M16,4h1M18,4h1M21,4h1M22,4h1M23,4h1M30,4h1M32,4h1M33,4h1M34,4h1M36,4h1M0,5h1M6,5h1M8,5h1M10,5h1M12,5h1M18,5h1M19,5h1M20,5h1M22,5h1M23,5h1M24,5h1M27,5h1M28,5h1M30,5h1M36,5h1M0,6h1M1,6h1M2,6h1M3,6h1M4,6h1M5,6h1M6,6h1M8,6h1M10,6h1M12,6h1M14,6h1M16,6h1M18,6h1M20,6h1M22,6h1M24,6h1M26,6h1M28,6h1M30,6h1M31,6h1M32,6h1M33,6h1M34,6h1M35,6h1M36,6h1M8,7h1M9,7h1M14,7h1M15,7h1M16,7h1M19,7h1M21,7h1M22,7h1M23,7h1M24,7h1M26,7h1M28,7h1M2,8h1M3,8h1M4,8h1M6,8h1M8,8h1M12,8h1M13,8h1M16,8h1M17,8h1M18,8h1M22,8h1M23,8h1M29,8h1M30,8h1M31,8h1M34,8h1M35,8h1M36,8h1M0,9h1M1,9h1M4,9h1M11,9h1M12,9h1M13,9h1M14,9h1M17,9h1M18,9h1M19,9h1M20,9h1M23,9h1M24,9h1M25,9h1M26,9h1M27,9h1M28,9h1M30,9h1M1,10h1M4,10h1M5,10h1M6,10h1M11,10h1M13,10h1M15,10h1M17,10h1M18,10h1M20,10h1M23,10h1M24,10h1M25,10h1M26,10h1M30,10h1M31,10h1M32,10h1M35,10h1M36,10h1M0,11h1M9,11h1M10,11h1M12,11h1M14,11h1M16,11h1M18,11h1M19,11h1M20,11h1M26,11h1M28,11h1M30,11h1M31,11h1M32,11h1M2,12h1M3,12h1M4,12h1M5,12h1M6,12h1M9,12h1M10,12h1M14,12h1M18,12h1M19,12h1M21,12h1M25,12h1M26,12h1M29,12h1M30,12h1M32,12h1M33,12h1M34,12h1M35,12h1M0,13h1M4,13h1M7,13h1M9,13h1M11,13h1M13,13h1M14,13h1M18,13h1M19,13h1M20,13h1M24,13h1M26,13h1M28,13h1M29,13h1M33,13h1M34,13h1M1,14h1M2,14h1M3,14h1M6,14h1M8,14h1M12,14h1M13,14h1M14,14h1M15,14h1M17,14h1M18,14h1M20,14h1M21,14h1M23,14h1M25,14h1M27,14h1M28,14h1M30,14h1M31,14h1M33,14h1M36,14h1M0,15h1M1,15h1M3,15h1M7,15h1M9,15h1M18,15h1M19,15h1M20,15h1M21,15h1M22,15h1M24,15h1M27,15h1M28,15h1M29,15h1M31,15h1M32,15h1M35,15h1M0,16h1M1,16h1M2,16h1M4,16h1M5,16h1M6,16h1M7,16h1M13,16h1M14,16h1M17,16h1M18,16h1M20,16h1M24,16h1M25,16h1M26,16h1M27,16h1M29,16h1M30,16h1M31,16h1M32,16h1M34,16h1M35,16h1M36,16h1M1,17h1M2,17h1M5,17h1M7,17h1M9,17h1M10,17h1M11,17h1M14,17h1M18,17h1M20,17h1M21,17h1M22,17h1M24,17h1M25,17h1M28,17h1M29,17h1M31,17h1M34,17h1M0,18h1M1,18h1M2,18h1M4,18h1M6,18h1M10,18h1M11,18h1M12,18h1M14,18h1M19,18h1M20,18h1M25,18h1M27,18h1M28,18h1M29,18h1M32,18h1M33,18h1M34,18h1M35,18h1M36,18h1M3,19h1M4,19h1M5,19h1M8,19h1M9,19h1M11,19h1M12,19h1M13,19h1M14,19h1M15,19h1M16,19h1M17,19h1M19,19h1M21,19h1M22,19h1M24,19h1M26,19h1M27,19h1M29,19h1M31,19h1M32,19h1M35,19h1M36,19h1M0,20h1M1,20h1M2,20h1M6,20h1M9,20h1M10,20h1M11,20h1M16,20h1M17,20h1M18,20h1M19,20h1M20,20h1M21,20h1M22,20h1M23,20h1M25,20h1M26,20h1M27,20h1M29,20h1M30,20h1M31,20h1M32,20h1M33,20h1M34,20h1M35,20h1M36,20h1M0,21h1M1,21h1M3,21h1M4,21h1M8,21h1M10,21h1M11,21h1M14,21h1M15,21h1M16,21h1M17,21h1M20,21h1M22,21h1M23,21h1M24,21h1M25,21h1M26,21h1M31,21h1M33,21h1M35,21h1M2,22h1M3,22h1M4,22h1M6,22h1M7,22h1M8,22h1M12,22h1M13,22h1M14,22h1M15,22h1M17,22h1M18,22h1M19,22h1M20,22h1M21,22h1M25,22h1M26,22h1M27,22h1M29,22h1M34,22h1M35,22h1M36,22h1M0,23h1M2,23h1M3,23h1M4,23h1M7,23h1M8,23h1M9,23h1M13,23h1M14,23h1M16,23h1M18,23h1M20,23h1M24,23h1M25,23h1M31,23h1M36,23h1M0,24h1M2,24h1M3,24h1M4,24h1M6,24h1M9,24h1M11,24h1M12,24h1M15,24h1M17,24h1M19,24h1M20,24h1M21,24h1M22,24h1M23,24h1M24,24h1M26,24h1M28,24h1M29,24h1M32,24h1M33,24h1M34,24h1M35,24h1M36,24h1M0,25h1M1,25h1M2,25h1M3,25h1M5,25h1M9,25h1M10,25h1M12,25h1M13,25h1M16,25h1M18,25h1M20,25h1M27,25h1M30,25h1M33,25h1M34,25h1M0,26h1M5,26h1M6,26h1M11,26h1M12,26h1M14,26h1M16,26h1M17,26h1M18,26h1M21,26h1M22,26h1M23,26h1M24,26h1M25,26h1M26,26h1M27,26h1M28,26h1M30,26h1M33,26h1M36,26h1M0,27h1M5,27h1M8,27h1M9,27h1M10,27h1M14,27h1M20,27h1M21,27h1M23,27h1M26,27h1M27,27h1M29,27h1M32,27h1M35,27h1M36,27h1M0,28h1M2,28h1M4,28h1M6,28h1M7,28h1M8,28h1M9,28h1M12,28h1M15,28h1M16,28h1M17,28h1M18,28h1M21,28h1M22,28h1M23,28h1M25,28h1M26,28h1M27,28h1M28,28h1M29,28h1M30,28h1M31,28h1M32,28h1M33,28h1M34,28h1M35,28h1M8,29h1M9,29h1M11,29h1M13,29h1M14,29h1M16,29h1M23,29h1M26,29h1M28,29h1M32,29h1M35,29h1M0,30h1M1,30h1M2,30h1M3,30h1M4,30h1M5,30h1M6,30h1M10,30h1M11,30h1M12,30h1M16,30h1M17,30h1M20,30h1M21,30h1M22,30h1M28,30h1M30,30h1M32,30h1M33,30h1M35,30h1M36,30h1M0,31h1M6,31h1M9,31h1M10,31h1M13,31h1M15,31h1M18,31h1M21,31h1M22,31h1M23,31h1M26,31h1M28,31h1M32,31h1M35,31h1M0,32h1M2,32h1M3,32h1M4,32h1M6,32h1M8,32h1M10,32h1M13,32h1M15,32h1M16,32h1M17,32h1M19,32h1M20,32h1M23,32h1M25,32h1M26,32h1M27,32h1M28,32h1M29,32h1M30,32h1M31,32h1M32,32h1M34,32h1M35,32h1M36,32h1M0,33h1M2,33h1M3,33h1M4,33h1M6,33h1M8,33h1M9,33h1M10,33h1M15,33h1M18,33h1M19,33h1M21,33h1M24,33h1M27,33h1M30,33h1M32,33h1M33,33h1M34,33h1M0,34h1M2,34h1M3,34h1M4,34h1M6,34h1M8,34h1M9,34h1M10,34h1M14,34h1M16,34h1M18,34h1M19,34h1M21,34h1M25,34h1M27,34h1M28,34h1M29,34h1M31,34h1M36,34h1M0,35h1M6,35h1M10,35h1M12,35h1M13,35h1M14,35h1M15,35h1M16,35h1M18,35h1M19,35h1M20,35h1M22,35h1M24,35h1M26,35h1M27,35h1M28,35h1M29,35h1M30,35h1M31,35h1M32,35h1M36,35h1M0,36h1M1,36h1M2,36h1M3,36h1M4,36h1M5,36h1M6,36h1M9,36h1M11,36h1M12,36h1M16,36h1M17,36h1M18,36h1M19,36h1M20,36h1M22,36h1M26,36h1M30,36h1M31,36h1M32,36h1M33,36h1M34,36h1M35,36h1M36,36h1"/>
	</g>
</svg>
