<?xml version="1.0" encoding="UTF-8" standalone="yes"?>
<!-- Created with qrencode 4.1.1 (https://fukuchi.org/works/qrencode/index.html) -->
<svg width="4.34cm" height="4.34cm" viewBox="0 0 41 41" preserveAspectRatio="none" version="1.1" xmlns="http://www.w3.org/2000/svg">
	<g id="QRcode">
		<rect x="0" y="0" width="41" height="41" fill="#000000" fill-opacity="0.000000"/>
		<path style="stroke:#ffffff" transform="translate(0,0.5)" d="M0,0h1M1,0h1M2,0h1M3,0h1M4,0h1M5,0h1M6,0h1M10,0h1M11,0h1M13,0h1M14,0h1M17,0h1M18,0h1M20,0h1M21,0h1M22,0h1M26,0h1M29,0h1M30,0h1M34,0h1M35,0h1M36,0h1M37,0h1M38,0h1M39,0h1M40,0h1M0,1h1M6,1h1M8,1h1M9,1h1M12,1h1M13,1h1M15,1h1M17,1h1M19,1h1M20,1h1M25,1h1M26,1h1M28,1h1M32,1h1M34,1h1M40,1h1M0,2h1M2,2h1M3,2h1M4,2h1M6,2h1M8,2h1M9,2h1M10,2h1M12,2h1M13,2h1M14,2h1M16,2h1M17,2h1M19,2h1M20,2h1M21,2h1M26,2h1M27,2h1M29,2h1M31,2h1M34,2h1M36,2h1M37,2h1M38,2h1M40,2h1M0,3h1M2,3h1M3,3h1M4,3h1M6,3h1M8,3h1M9,3h1M11,3h1M12,3h1M15,3h1M23,3h1M24,3h1M26,3h1M27,3h1M29,3h1M30,3h1M31,3h1M32,3h1M34,3h1M36,3h1M37,3h1M38,3h1M40,3h1M0,4h1M2,4h1M3,4h1M4,4h1M6,4h1M8,4h1M10,4h1M11,4h1M12,4h1M13,4h1M14,4h1M16,4h1M17,4h1M18,4h1M22,4h1M23,4h1M25,4h1M26,4h1M29,4h1M34,4h1M36,4h1M37,4h1M38,4h1M40,4h1M0,5h1M6,5h1M8,5h1M9,5h1M10,5h1M11,5h1M12,5h1M20,5h1M21,5h1M24,5h1M28,5h1M29,5h1M30,5h1M32,5h1M34,5h1M40,5h1M0,6h1M1,6h1M2,6h1M3,6h1M4,6h1M5,6h1M6,6h1M8,6h1M10,6h1M12,6h1M14,6h1M16,6h1M18,6h1M20,6h1M22,6h1M24,6h1M26,6h1M28,6h1M30,6h1M32,6h1M34,6h1M35,6h1M36,6h1M37,6h1M38,6h1M39,6h1M40,6h1M10,7h1M11,7h1M12,7h1M15,7h1M16,7h1M17,7h1M22,7h1M24,7h1M30,7h1M31,7h1M2,8h1M5,8h1M6,8h1M7,8h1M8,8h1M12,8h1M14,8h1M15,8h1M16,8h1M17,8h1M19,8h1M20,8h1M22,8h1M25,8h1M26,8h1M28,8h1M32,8h1M33,8h1M35,8h1M36,8h1M37,8h1M38,8h1M39,8h1M0,9h1M1,9h1M4,9h1M5,9h1M8,9h1M11,9h1M13,9h1M15,9h1M19,9h1M20,9h1M22,9h1M23,9h1M27,9h1M28,9h1M31,9h1M32,9h1M33,9h1M34,9h1M38,9h1M40,9h1M0,10h1M1,10h1M2,10h1M4,10h1M5,10h1M6,10h1M11,10h1M12,10h1M18,10h1M22,10h1M25,10h1M26,10h1M27,10h1M30,10h1M31,10h1M33,10h1M34,10h1M35,10h1M37,10h1M38,10h1M39,10h1M40,10h1M0,11h1M1,11h1M3,11h1M5,11h1M8,11h1M10,11h1M13,11h1M14,11h1M16,11h1M18,11h1M20,11h1M21,11h1M23,11h1M25,11h1M28,11h1M30,11h1M31,11h1M32,11h1M33,11h1M37,11h1M40,11h1M1,12h1M3,12h1M4,12h1M6,12h1M7,12h1M9,12h1M12,12h1M14,12h1M16,12h1M18,12h1M20,12h1M21,12h1M22,12h1M27,12h1M28,12h1M30,12h1M32,12h1M34,12h1M35,12h1M36,12h1M1,13h1M2,13h1M3,13h1M4,13h1M5,13h1M7,13h1M8,13h1M9,13h1M10,13h1M12,13h1M13,13h1M14,13h1M15,13h1M16,13h1M17,13h1M18,13h1M21,13h1M22,13h1M24,13h1M26,13h1M29,13h1M31,13h1M32,13h1M34,13h1M35,13h1M39,13h1M40,13h1M0,14h1M3,14h1M4,14h1M6,14h1M7,14h1M12,14h1M13,14h1M14,14h1M15,14h1M17,14h1M18,14h1M19,14h1M20,14h1M21,14h1M22,14h1M23,14h1M24,14h1M25,14h1M27,14h1M28,14h1M29,14h1M31,14h1M32,14h1M33,14h1M34,14h1M40,14h1M1,15h1M7,15h1M8,15h1M9,15h1M11,15h1M12,15h1M13,15h1M15,15h1M17,15h1M18,15h1M22,15h1M26,15h1M27,15h1M28,15h1M32,15h1M33,15h1M34,15h1M35,15h1M36,15h1M37,15h1M39,15h1M1,16h1M2,16h1M3,16h1M4,16h1M5,16h1M6,16h1M7,16h1M9,16h1M10,16h1M13,16h1M15,16h1M17,16h1M19,16h1M21,16h1M22,16h1M24,16h1M26,16h1M28,16h1M32,16h1M33,16h1M34,16h1M37,16h1M39,16h1M2,17h1M7,17h1M10,17h1M11,17h1M13,17h1M18,17h1M20,17h1M22,17h1M27,17h1M31,17h1M33,17h1M34,17h1M35,17h1M38,17h1M40,17h1M1,18h1M3,18h1M4,18h1M5,18h1M6,18h1M8,18h1M10,18h1M11,18h1M14,18h1M15,18h1M16,18h1M20,18h1M22,18h1M23,18h1M24,18h1M25,18h1M27,18h1M28,18h1M29,18h1M31,18h1M33,18h1M35,18h1M36,18h1M37,18h1M40,18h1M2,19h1M4,19h1M7,19h1M8,19h1M9,19h1M10,19h1M11,19h1M12,19h1M13,19h1M14,19h1M19,19h1M20,19h1M21,19h1M26,19h1M28,19h1M32,19h1M37,19h1M40,19h1M1,20h1M2,20h1M4,20h1M6,20h1M7,20h1M8,20h1M9,20h1M10,20h1M17,20h1M18,20h1M20,20h1M21,20h1M23,20h1M24,20h1M25,20h1M26,20h1M27,20h1M28,20h1M31,20h1M32,20h1M34,20h1M35,20h1M37,20h1M1,21h1M2,21h1M5,21h1M8,21h1M9,21h1M10,21h1M11,21h1M14,21h1M21,21h1M22,21h1M23,21h1M24,21h1M27,21h1M28,21h1M29,21h1M32,21h1M33,21h1M35,21h1M37,21h1M38,21h1M40,21h1M0,22h1M1,22h1M2,22h1M4,22h1M6,22h1M7,22h1M9,22h1M11,22h1M12,22h1M13,22h1M15,22h1M16,22h1M18,22h1M20,22h1M21,22h1M22,22h1M23,22h1M24,22h1M25,22h1M27,22h1M28,22h1M29,22h1M30,22h1M31,22h1M32,22h1M33,22h1M34,22h1M35,22h1M38,22h1M40,22h1M1,23h1M3,23h1M4,23h1M7,23h1M8,23h1M11,23h1M15,23h1M17,23h1M18,23h1M20,23h1M21,23h1M23,23h1M25,23h1M26,23h1M30,23h1M32,23h1M37,23h1M39,23h1M4,24h1M5,24h1M6,24h1M7,24h1M10,24h1M11,24h1M13,24h1M16,24h1M18,24h1M21,24h1M25,24h1M32,24h1M33,24h1M34,24h1M39,24h1M0,25h1M2,25h1M3,25h1M4,25h1M5,25h1M7,25h1M9,25h1M10,25h1M11,25h1M15,25h1M17,25h1M25,25h1M27,25h1M28,25h1M29,25h1M30,25h1M31,25h1M33,25h1M34,25h1M37,25h1M40,25h1M2,26h1M3,26h1M4,26h1M5,26h1M6,26h1M7,26h1M9,26h1M10,26h1M12,26h1M14,26h1M15,26h1M16,26h1M18,26h1M20,26h1M21,26h1M27,26h1M28,26h1M31,26h1M36,26h1M37,26h1M38,26h1M40,26h1M0,27h1M2,27h1M4,27h1M8,27h1M9,27h1M11,27h1M12,27h1M14,27h1M15,27h1M16,27h1M18,27h1M20,27h1M22,27h1M23,27h1M30,27h1M31,27h1M32,27h1M34,27h1M35,27h1M36,27h1M37,27h1M39,27h1M1,28h1M3,28h1M5,28h1M6,28h1M8,28h1M12,28h1M13,28h1M14,28h1M16,28h1M17,28h1M18,28h1M20,28h1M21,28h1M24,28h1M28,28h1M32,28h1M34,28h1M35,28h1M39,28h1M2,29h1M3,29h1M4,29h1M5,29h1M7,29h1M8,29h1M9,29h1M10,29h1M12,29h1M14,29h1M15,29h1M16,29h1M17,29h1M20,29h1M21,29h1M22,29h1M24,29h1M26,29h1M27,29h1M28,29h1M29,29h1M31,29h1M32,29h1M33,29h1M34,29h1M37,29h1M38,29h1M40,29h1M0,30h1M1,30h1M2,30h1M4,30h1M6,30h1M9,30h1M10,30h1M13,30h1M17,30h1M18,30h1M19,30h1M27,30h1M31,30h1M33,30h1M36,30h1M40,30h1M2,31h1M5,31h1M7,31h1M9,31h1M12,31h1M13,31h1M14,31h1M19,31h1M21,31h1M23,31h1M24,31h1M25,31h1M26,31h1M27,31h1M28,31h1M30,31h1M31,31h1M34,31h1M35,31h1M36,31h1M37,31h1M0,32h1M1,32h1M4,32h1M5,32h1M6,32h1M8,32h1M10,32h1M14,32h1M16,32h1M19,32h1M20,32h1M25,32h1M26,32h1M31,32h1M32,32h1M33,32h1M34,32h1M35,32h1M36,32h1M37,32h1M40,32h1M8,33h1M9,33h1M10,33h1M11,33h1M13,33h1M15,33h1M18,33h1M19,33h1M20,33h1M25,33h1M27,33h1M28,33h1M29,33h1M30,33h1M31,33h1M32,33h1M36,33h1M37,33h1M40,33h1M0,34h1M1,34h1M2,34h1M3,34h1M4,34h1M5,34h1M6,34h1M8,34h1M9,34h1M12,34h1M14,34h1M16,34h1M18,34h1M19,34h1M20,34h1M22,34h1M23,34h1M24,34h1M26,34h1M27,34h1M29,34h1M30,34h1M32,34h1M34,34h1M36,34h1M38,34h1M39,34h1M40,34h1M0,35h1M6,35h1M8,35h1M9,35h1M13,35h1M15,35h1M17,35h1M20,35h1M23,35h1M26,35h1M27,35h1M30,35h1M32,35h1M36,35h1M40,35h1M0,36h1M2,36h1M3,36h1M4,36h1M6,36h1M10,36h1M11,36h1M14,36h1M15,36h1M16,36h1M19,36h1M20,36h1M24,36h1M26,36h1M27,36h1M31,36h1M32,36h1M33,36h1M34,36h1M35,36h1M36,36h1M37,36h1M39,36h1M40,36h1M0,37h1M2,37h1M3,37h1M4,37h1M6,37h1M11,37h1M12,37h1M13,37h1M15,37h1M16,37h1M17,37h1M18,37h1M20,37h1M22,37h1M23,37h1M25,37h1M27,37h1M28,37h1M32,37h1M35,37h1M36,37h1M37,37h1M39,37h1M40,37h1M0,38h1M2,38h1M3,38h1M4,38h1M6,38h1M8,38h1M9,38h1M12,38h1M13,38h1M14,38h1M16,38h1M21,38h1M23,38h1M26,38h1M27,38h1M29,38h1M31,38h1M32,38h1M33,38h1M36,38h1M37,38h1M38,38h1M39,38h1M40,38h1M0,39h1M6,39h1M9,39h1M12,39h1M13,39h1M15,39h1M17,39h1M18,39h1M19,39h1M20,39h1M22,39h1M23,39h1M24,39h1M25,39h1M26,39h1M27,39h1M28,39h1M33,39h1M37,39h1M0,40h1M1,40h1M2,40h1M3,40h1M4,40h1M5,40h1M6,40h1M10,40h1M12,40h1M15,40h1M18,40h1M19,40h1M20,40h1M28,40h1M32,40h1M34,40h1M36,40h1M40,40h1"/>
	</g>
</svg>
