<?xml version="1.0" encoding="UTF-8" standalone="yes"?>
<!-- Created with qrencode 4.1.1 (https://fukuchi.org/works/qrencode/index.html) -->
<svg width="3.92cm" height="3.92cm" viewBox="0 0 37 37" preserveAspectRatio="none" version="1.1" xmlns="http://www.w3.org/2000/svg">
	<g id="QRcode">
		<rect x="0" y="0" width="37" height="37" fill="#000000" fill-opacity="0.000000"/>
		<path style="stroke:#ffffff" transform="translate(0,0.5)" d="M0,0h1M1,0h1M2,0h1M3,0h1M4,0h1M5,0h1M6,0h1M8,0h1M12,0h1M13,0h1M14,0h1M15,0h1M17,0h1M18,0h1M19,0h1M21,0h1M23,0h1M24,0h1M25,0h1M26,0h1M27,0h1M30,0h1M31,0h1M32,0h1M33,0h1M34,0h1M35,0h1M36,0h1M0,1h1M6,1h1M10,1h1M11,1h1M12,1h1M13,1h1M14,1h1M16,1h1M18,1h1M22,1h1M23,1h1M27,1h1M30,1h1M36,1h1M0,2h1M2,2h1M3,2h1M4,2h1M6,2h1M10,2h1M12,2h1M13,2h1M14,2h1M18,2h1M19,2h1M21,2h1M24,2h1M27,2h1M28,2h1M30,2h1M32,2h1M33,2h1M34,2h1M36,2h1M0,3h1M2,3h1M3,3h1M4,3h1M6,3h1M8,3h1M9,3h1M15,3h1M17,3h1M18,3h1M19,3h1M20,3h1M23,3h1M26,3h1M27,3h1M30,3h1M32,3h1M33,3h1M34,3h1M36,3h1M0,4h1M2,4h1M3,4h1M4,4h1M6,4h1M11,4h1M13,4h1M14,4h1M15,4h1M16,4h1M17,4h1M24,4h1M27,4h1M28,4h1M30,4h1M32,4h1M33,4h1M34,4h1M36,4h1M0,5h1M6,5h1M11,5h1M14,5h1M17,5h1M19,5h1M21,5h1M22,5h1M24,5h1M25,5h1M27,5h1M28,5h1M30,5h1M36,5h1M0,6h1M1,6h1M2,6h1M3,6h1M4,6h1M5,6h1M6,6h1M8,6h1M10,6h1M12,6h1M14,6h1M16,6h1M18,6h1M20,6h1M22,6h1M24,6h1M26,6h1M28,6h1M30,6h1M31,6h1M32,6h1M33,6h1M34,6h1M35,6h1M36,6h1M9,7h1M12,7h1M13,7h1M15,7h1M16,7h1M18,7h1M20,7h1M21,7h1M24,7h1M25,7h1M26,7h1M28,7h1M2,8h1M4,8h1M5,8h1M6,8h1M8,8h1M12,8h1M15,8h1M17,8h1M24,8h1M26,8h1M27,8h1M28,8h1M29,8h1M33,8h1M36,8h1M0,9h1M2,9h1M9,9h1M10,9h1M12,9h1M13,9h1M14,9h1M16,9h1M20,9h1M21,9h1M23,9h1M26,9h1M27,9h1M28,9h1M31,9h1M33,9h1M34,9h1M35,9h1M36,9h1M0,10h1M1,10h1M2,10h1M4,10h1M6,10h1M7,10h1M8,10h1M10,10h1M11,10h1M12,10h1M13,10h1M17,10h1M19,10h1M20,10h1M21,10h1M22,10h1M24,10h1M25,10h1M27,10h1M28,10h1M30,10h1M31,10h1M32,10h1M34,10h1M35,10h1M36,10h1M5,11h1M7,11h1M9,11h1M11,11h1M13,11h1M14,11h1M15,11h1M17,11h1M20,11h1M21,11h1M25,11h1M26,11h1M28,11h1M29,11h1M31,11h1M36,11h1M1,12h1M2,12h1M5,12h1M6,12h1M7,12h1M8,12h1M9,12h1M10,12h1M11,12h1M16,12h1M20,12h1M24,12h1M25,12h1M27,12h1M28,12h1M29,12h1M30,12h1M35,12h1M1,13h1M3,13h1M5,13h1M8,13h1M9,13h1M10,13h1M12,13h1M15,13h1M16,13h1M20,13h1M21,13h1M22,13h1M23,13h1M25,13h1M26,13h1M28,13h1M30,13h1M33,13h1M34,13h1M35,13h1M36,13h1M0,14h1M1,14h1M2,14h1M5,14h1M6,14h1M7,14h1M8,14h1M10,14h1M11,14h1M15,14h1M17,14h1M18,14h1M20,14h1M24,14h1M28,14h1M29,14h1M30,14h1M32,14h1M34,14h1M36,14h1M0,15h1M1,15h1M2,15h1M4,15h1M5,15h1M7,15h1M8,15h1M11,15h1M13,15h1M14,15h1M15,15h1M19,15h1M20,15h1M22,15h1M24,15h1M25,15h1M26,15h1M27,15h1M28,15h1M31,15h1M36,15h1M0,16h1M2,16h1M4,16h1M5,16h1M6,16h1M9,16h1M10,16h1M12,16h1M13,16h1M17,16h1M18,16h1M19,16h1M21,16h1M22,16h1M24,16h1M25,16h1M26,16h1M27,16h1M28,16h1M29,16h1M30,16h1M31,16h1M33,16h1M35,16h1M36,16h1M3,17h1M7,17h1M8,17h1M9,17h1M10,17h1M11,17h1M12,17h1M13,17h1M15,17h1M23,17h1M25,17h1M28,17h1M30,17h1M34,17h1M35,17h1M36,17h1M1,18h1M3,18h1M6,18h1M7,18h1M9,18h1M14,18h1M15,18h1M17,18h1M18,18h1M19,18h1M20,18h1M21,18h1M22,18h1M25,18h1M26,18h1M31,18h1M35,18h1M36,18h1M9,19h1M11,19h1M12,19h1M13,19h1M14,19h1M15,19h1M16,19h1M18,19h1M19,19h1M20,19h1M22,19h1M23,19h1M24,19h1M25,19h1M26,19h1M27,19h1M28,19h1M29,19h1M32,19h1M36,19h1M1,20h1M2,20h1M5,20h1M6,20h1M8,20h1M9,20h1M10,20h1M16,20h1M18,20h1M19,20h1M21,20h1M23,20h1M24,20h1M28,20h1M29,20h1M30,20h1M31,20h1M33,20h1M36,20h1M2,21h1M3,21h1M4,21h1M16,21h1M17,21h1M18,21h1M21,21h1M22,21h1M26,21h1M30,21h1M34,21h1M35,21h1M36,21h1M0,22h1M1,22h1M2,22h1M5,22h1M6,22h1M7,22h1M9,22h1M12,22h1M16,22h1M18,22h1M21,22h1M22,22h1M23,22h1M24,22h1M25,22h1M28,22h1M29,22h1M32,22h1M33,22h1M34,22h1M35,22h1M36,22h1M0,23h1M1,23h1M3,23h1M7,23h1M11,23h1M13,23h1M14,23h1M15,23h1M16,23h1M17,23h1M18,23h1M19,23h1M20,23h1M21,23h1M23,23h1M29,23h1M30,23h1M33,23h1M1,24h1M5,24h1M6,24h1M7,24h1M8,24h1M9,24h1M11,24h1M12,24h1M15,24h1M16,24h1M18,24h1M21,24h1M24,24h1M27,24h1M29,24h1M32,24h1M35,24h1M36,24h1M3,25h1M4,25h1M5,25h1M8,25h1M11,25h1M13,25h1M15,25h1M17,25h1M19,25h1M20,25h1M21,25h1M23,25h1M24,25h1M25,25h1M27,25h1M29,25h1M32,25h1M33,25h1M34,25h1M35,25h1M36,25h1M0,26h1M3,26h1M5,26h1M6,26h1M7,26h1M9,26h1M10,26h1M12,26h1M14,26h1M16,26h1M17,26h1M19,26h1M20,26h1M21,26h1M23,26h1M24,26h1M25,26h1M30,26h1M34,26h1M35,26h1M36,26h1M1,27h1M2,27h1M4,27h1M9,27h1M12,27h1M14,27h1M17,27h1M24,27h1M25,27h1M26,27h1M27,27h1M30,27h1M32,27h1M33,27h1M36,27h1M0,28h1M2,28h1M4,28h1M6,28h1M8,28h1M9,28h1M10,28h1M11,28h1M12,28h1M13,28h1M14,28h1M15,28h1M17,28h1M20,28h1M21,28h1M22,28h1M23,28h1M25,28h1M28,28h1M29,28h1M30,28h1M31,28h1M32,28h1M34,28h1M36,28h1M8,29h1M9,29h1M12,29h1M16,29h1M17,29h1M19,29h1M22,29h1M24,29h1M26,29h1M27,29h1M28,29h1M32,29h1M36,29h1M0,30h1M1,30h1M2,30h1M3,30h1M4,30h1M5,30h1M6,30h1M9,30h1M11,30h1M14,30h1M16,30h1M18,30h1M19,30h1M20,30h1M21,30h1M24,30h1M25,30h1M27,30h1M28,30h1M30,30h1M32,30h1M34,30h1M35,30h1M36,30h1M0,31h1M6,31h1M8,31h1M9,31h1M11,31h1M13,31h1M15,31h1M16,31h1M17,31h1M18,31h1M20,31h1M22,31h1M23,31h1M24,31h1M25,31h1M28,31h1M32,31h1M36,31h1M0,32h1M2,32h1M3,32h1M4,32h1M6,32h1M8,32h1M9,32h1M10,32h1M17,32h1M25,32h1M28,32h1M29,32h1M30,32h1M31,32h1M32,32h1M33,32h1M35,32h1M36,32h1M0,33h1M2,33h1M3,33h1M4,33h1M6,33h1M11,33h1M13,33h1M15,33h1M16,33h1M17,33h1M18,33h1M19,33h1M20,33h1M22,33h1M23,33h1M29,33h1M31,33h1M33,33h1M34,33h1M35,33h1M36,33h1M0,34h1M2,34h1M3,34h1M4,34h1M6,34h1M8,34h1M12,34h1M15,34h1M16,34h1M19,34h1M20,34h1M21,34h1M22,34h1M25,34h1M27,34h1M28,34h1M29,34h1M31,34h1M32,34h1M33,34h1M34,34h1M36,34h1M0,35h1M6,35h1M12,35h1M15,35h1M16,35h1M18,35h1M19,35h1M23,35h1M25,35h1M26,35h1M28,35h1M32,35h1M35,35h1M0,36h1M1,36h1M2,36h1M3,36h1M4,36h1M5,36h1M6,36h1M9,36h1M11,36h1M14,36h1M16,36h1M17,36h1M18,36h1M20,36h1M21,36h1M25,36h1M27,36h1M28,36h1M30,36h1M31,36h1M35,36h1M36,36h1"/>
	</g>
</svg>
